<svg xmlns="http://www.w3.org/2000/svg" width="512" height="512" viewBox="0 0 512 512" version="1.1">
	<path d="M 234 1.500 C 232.164 2.550, 227.716 2.939, 217.250 2.965 C 204.360 2.997, 202.809 3.191, 201 5 C 199.762 6.238, 199 8.333, 199 10.500 C 199 12.667, 199.762 14.762, 201 16 C 202.810 17.810, 204.333 18, 217.050 18 C 226.902 18, 231.906 18.406, 233.800 19.359 C 235.285 20.107, 238.639 20.999, 241.253 21.341 C 250.997 22.616, 259.621 29.333, 262.451 37.853 C 263.363 40.599, 264.719 43.352, 265.464 43.970 C 266.208 44.588, 268.304 51.148, 270.121 58.547 L 273.425 72 281.602 72 L 289.778 72 286.363 58.750 C 284.485 51.462, 282.806 42.350, 282.632 38.500 C 281.899 22.293, 267.747 5.995, 250.540 1.542 C 243.181 -0.362, 237.284 -0.377, 234 1.500 M 233.443 134.250 C 233.755 136.588, 234.904 148.400, 235.997 160.500 C 237.090 172.600, 238.249 184.599, 238.574 187.164 L 239.164 191.828 269.832 192.200 L 300.500 192.573 310.219 195.903 C 322.746 200.194, 333.269 206.403, 342.042 214.679 C 348.075 220.370, 357.901 233.203, 359.193 237.078 C 359.615 238.344, 363.908 236.083, 384 224.011 C 389.225 220.872, 410.150 208.724, 430.500 197.017 C 450.850 185.309, 467.847 175.421, 468.272 175.043 C 468.870 174.511, 472.890 137.129, 472.981 131.250 C 472.996 130.257, 448.331 130, 352.939 130 L 232.877 130 233.443 134.250 M 117.326 309.110 C 111.492 310.172, 108.568 311.938, 100.190 319.460 C 91.477 327.283, 87.771 329.002, 79.628 328.994 C 70.054 328.986, 66.913 327.641, 58.400 319.909 C 49.322 311.664, 46.599 310.095, 40.009 309.315 C 35.918 308.830, 34.407 309.158, 30.693 311.334 C 19.797 317.720, 20.494 331.530, 32.039 338 L 36.500 340.500 206.958 340.761 C 396.402 341.052, 383.149 341.518, 390.353 334.313 C 396.041 328.625, 396.411 321.019, 391.296 314.940 C 386.168 308.846, 379.093 307.412, 371.396 310.908 C 369.139 311.933, 364.189 315.591, 360.396 319.036 C 351.641 326.990, 347.398 328.950, 338.872 328.978 C 330.183 329.007, 326.946 327.521, 316.990 318.931 C 308.264 311.403, 305.135 309.657, 298.380 308.546 C 290.878 307.312, 284.474 310.064, 273.940 319.051 C 261.417 329.735, 255.166 331.723, 244.272 328.488 C 240.475 327.360, 237.187 325.161, 231.340 319.838 C 221.655 311.021, 217.564 309.044, 209 309.044 C 200.617 309.044, 196.340 311.027, 187.604 318.964 C 178.808 326.955, 174.448 328.950, 165.718 328.978 C 156.904 329.007, 153.933 327.657, 144.947 319.542 C 134.357 309.979, 127.266 307.301, 117.326 309.110 M 419 356.156 C 400.025 367.150, 383.600 376.512, 382.500 376.962 C 381.400 377.412, 376.940 379.889, 372.589 382.468 C 364.955 386.992, 364.528 387.119, 360.396 386.078 C 357.662 385.390, 340.455 385, 312.799 385 L 269.483 385 247 407.500 L 224.517 430 290.858 430 L 357.200 430 360.510 433.310 C 364.739 437.539, 366.466 443.556, 365.006 448.976 C 363.117 455.993, 349.246 467.710, 336.947 472.677 C 321.972 478.726, 327.861 478.391, 226.500 478.969 L 133.500 479.500 148 486.677 C 171.844 498.479, 194.390 505.657, 220 509.598 C 236.257 512.100, 274.021 512.146, 290 509.683 C 332.533 503.128, 372.940 486.334, 403.396 462.553 C 416.812 452.076, 429.823 440.091, 438 430.675 L 445.500 422.039 449.605 379.270 C 451.863 355.746, 453.663 336.425, 453.605 336.334 C 453.547 336.243, 437.975 345.163, 419 356.156 M 57.994 385.934 C 54.053 387.133, 49.655 389.619, 47.749 391.725 C 46.066 393.585, 46.266 394.040, 53.251 404.214 C 57.238 410.022, 63.318 418.199, 66.763 422.387 L 73.026 430 133.254 430 L 193.483 430 171 407.500 L 148.517 385 104.508 385.086 C 80.304 385.133, 59.372 385.515, 57.994 385.934" stroke="none" fill="black" fill-rule="evenodd"/>
</svg>